<svg xmlns="http://www.w3.org/2000/svg" viewBox="0 0 64 64" width="64" height="64">
  <defs>
    <linearGradient id="flask_liq" x1="0%" y1="0%" x2="0%" y2="100%">
      <stop offset="0%" stop-color="#38BDF8"/>
      <stop offset="100%" stop-color="#0284C7"/>
    </linearGradient>
  </defs>
  <!-- Flask neck & rim -->
  <rect x="28" y="8" width="8" height="4" rx="1" fill="#38BDF8"/>
  <path d="M29 12 L29 24 L14 48 C12 52 14 56 20 56 L44 56 C50 56 52 52 50 48 L35 24 L35 12 Z" 
        fill="none" stroke="#38BDF8" stroke-width="2.5" stroke-linejoin="round"/>
  <!-- Liquid inside -->
  <path d="M21 42 L43 42 L45 49 C46 52 44 54 41 54 L23 54 C20 54 18 52 19 49 Z" fill="url(#flask_liq)"/>
  <circle cx="28" cy="46" r="2" fill="#E0F2FE"/>
  <circle cx="36" cy="48" r="1.5" fill="#E0F2FE"/>
</svg>
